# xmcd CD database file
#
# Track frame offsets:
#	150
#	19828
#	47245
#	79599
#	96995
#	129671
#	153621
#	177686
#	199961
#	208479
#	227631
#
# Disc length: 3496 seconds
#
# Revision: 0
# Processed by: cddbd v1.5.1PL0 Copyright (c) Steve Scherf et al.
# Submitted via: CDex 1.51
#
DISCID=a20da60b
DTITLE=Sergio Gruz  - Trio
DYEAR=2004
DGENRE=Jazz
TTITLE0=Ensemble
TTITLE1=Gracias a la vida
TTITLE2=Líle Tudy
TTITLE3=Requiem
TTITLE4=En Avant
TTITLE5=Zamba
TTITLE6=Cést possible?
TTITLE7=No Exit
TTITLE8=solo
TTITLE9=Time
TTITLE10=Gracias
EXTD=YEAR: 2004
EXTT0=
EXTT1=
EXTT2=
EXTT3=
EXTT4=
EXTT5=
EXTT6=
EXTT7=
EXTT8=
EXTT9=
EXTT10=
PLAYORDER=
